<mxfile host="app.diagrams.net" modified="2023-10-31T07:46:12.461Z" agent="Mozilla/5.0 (Windows NT 10.0; Win64; x64) AppleWebKit/537.36 (KHTML, like Gecko) Chrome/118.0.0.0 Safari/537.36" etag="UIx0PulH9lvf7-o-U2U3" version="22.0.8" type="github">
  <diagram name="Page-1" id="yIYIa6VDXlkNMpbg1he7">
    <mxGraphModel dx="1222" dy="641" grid="1" gridSize="10" guides="1" tooltips="1" connect="1" arrows="1" fold="1" page="1" pageScale="1" pageWidth="850" pageHeight="1100" math="0" shadow="0">
      <root>
        <mxCell id="0" />
        <mxCell id="1" parent="0" />
        <mxCell id="SKVCdsZH6aCQMh7ALw3o-1" value="&lt;font style=&quot;font-size: 26px;&quot;&gt;Pemain&lt;/font&gt;" style="rounded=0;whiteSpace=wrap;html=1;" vertex="1" parent="1">
          <mxGeometry x="240" y="80" width="360" height="80" as="geometry" />
        </mxCell>
        <mxCell id="SKVCdsZH6aCQMh7ALw3o-2" value="&lt;div style=&quot;&quot;&gt;&lt;span style=&quot;font-size: 26px; background-color: initial;&quot;&gt;- img : varchar&lt;/span&gt;&lt;/div&gt;&lt;span style=&quot;font-size: 26px;&quot;&gt;&lt;div style=&quot;&quot;&gt;&lt;span style=&quot;background-color: initial;&quot;&gt;- sumbu x : int&lt;/span&gt;&lt;/div&gt;&lt;div style=&quot;&quot;&gt;&lt;span style=&quot;background-color: initial;&quot;&gt;- sumbu y : int&lt;/span&gt;&lt;/div&gt;&lt;div style=&quot;&quot;&gt;&lt;span style=&quot;background-color: initial;&quot;&gt;- speed : int&lt;/span&gt;&lt;/div&gt;&lt;/span&gt;" style="rounded=0;whiteSpace=wrap;html=1;align=left;" vertex="1" parent="1">
          <mxGeometry x="240" y="160" width="360" height="170" as="geometry" />
        </mxCell>
        <mxCell id="SKVCdsZH6aCQMh7ALw3o-3" value="&lt;div style=&quot;&quot;&gt;&lt;div style=&quot;border-color: var(--border-color); font-size: 26px;&quot;&gt;+ start ()&lt;/div&gt;&lt;div style=&quot;border-color: var(--border-color); font-size: 26px;&quot;&gt;+ lari ()&lt;/div&gt;&lt;div style=&quot;border-color: var(--border-color);&quot;&gt;&lt;span style=&quot;border-color: var(--border-color); font-size: 26px;&quot;&gt;+ loncat ()&lt;/span&gt;&lt;/div&gt;&lt;div style=&quot;border-color: var(--border-color);&quot;&gt;&lt;span style=&quot;border-color: var(--border-color); font-size: 26px;&quot;&gt;+ finish ()&lt;/span&gt;&lt;/div&gt;&lt;/div&gt;" style="rounded=0;whiteSpace=wrap;html=1;align=left;" vertex="1" parent="1">
          <mxGeometry x="240" y="330" width="360" height="170" as="geometry" />
        </mxCell>
      </root>
    </mxGraphModel>
  </diagram>
</mxfile>
